<svg width="20" height="20" viewBox="0 0 14 14" fill="none" xmlns="http://www.w3.org/2000/svg">
	<path d="M6.77807 5.89049C6.8991 6.01153 7.10083 6.01153 7.22187 5.89049L12.9106 0.201728C13.1527 -0.0403466 13.5562 -0.0403466 13.7982 0.201728C14.0403 0.443803 14.0403 0.847261 13.7982 1.08934L8.10948 6.7781C7.98844 6.89913 7.98844 7.10086 8.10948 7.2219L13.7982 12.9107C14.0403 13.1527 14.0403 13.5562 13.7982 13.7983C13.5562 14.0403 13.1527 14.0403 12.9106 13.7983L7.22187 8.10951C7.10083 7.98847 6.8991 7.98847 6.77807 8.10951L1.08931 13.7983C0.847231 14.0403 0.443773 14.0403 0.201698 13.7983C-0.0403771 13.5562 -0.0403771 13.1527 0.201698 12.9107L5.89046 7.2219C6.0115 7.10086 6.0115 6.89913 5.89046 6.7781L0.201698 1.08934C-0.0403771 0.847261 -0.0403771 0.443803 0.201698 0.201728C0.443773 -0.0403466 0.847231 -0.0403466 1.08931 0.201728L6.77807 5.89049Z" fill="#222"/>
</svg>